PathFileType	4	(X/Y/Z)	F:\MotionCapture\20160217\3\Generated_files\EMG_test03-Dynamic.trc
DataRate	CameraRate	NumFrames	NumMarkers	Units	OrigDataRate	OrigDataStartFrame	OrigNumFrames
120.00	120.00	       4	39	mm	120.00	370	       739
Frame#	Time	Top.Head			Front.Head			Rear.Head			R.Shoulder			R.Offset			R.Elbow			R.Wrist			L.Shoulder			L.Elbow			L.Wrist			R.ASIS			L.ASIS			V.Sacral			R.Thigh			R.Knee			R.Shank			R.Ankle			R.Heel			R.Toe			L.Thigh			L.Knee			L.Shank			L.Ankle			L.Heel			L.Toe			R1			R2			R3			R4			R5			R6			R7			L1			L2			L3			L4			L5			L6			L7			V_Mid_ASIS			V_Pelvis_Origin			V_R.Hip_JC			V_L.Hip_JC			V_R.Knee_JC			V_L.Knee_JC			V_R.Ankle_JC			V_L.Ankle_JC			V_Mid_Hip			V_Mid_Shoulder			V_R.Hand			V_L.Hand			V_R.Toe_Offset_Static			V_L.Toe_Offset_Static			V_R.Toe_Offset			V_L.Toe_Offset			
		X1	Y1	Z1	X2	Y2	Z2	X3	Y3	Z3	X4	Y4	Z4	X5	Y5	Z5	X6	Y6	Z6	X7	Y7	Z7	X8	Y8	Z8	X9	Y9	Z9	X10	Y10	Z10	X11	Y11	Z11	X12	Y12	Z12	X13	Y13	Z13	X14	Y14	Z14	X15	Y15	Z15	X16	Y16	Z16	X17	Y17	Z17	X18	Y18	Z18	X19	Y19	Z19	X20	Y20	Z20	X21	Y21	Z21	X22	Y22	Z22	X23	Y23	Z23	X24	Y24	Z24	X25	Y25	Z25	X26	Y26	Z26	X27	Y27	Z27	X28	Y28	Z28	X29	Y29	Z29	X30	Y30	Z30	X31	Y31	Z31	X32	Y32	Z32	X33	Y33	Z33	X34	Y34	Z34	X35	Y35	Z35	X36	Y36	Z36	X37	Y37	Z37	X38	Y38	Z38	X39	Y39	Z39	

370	3.075	-1056.15698	58.54727	1701.18347	-940.90460	60.36163	1622.83862	-1161.32666	69.91257	1627.56677	-1105.27795	-126.64194	1384.09106	-1225.83667	156.92728	1249.71326	-1192.66052	-209.65227	1068.55566	-1146.35120	-206.30453	808.13306	-1065.73181	279.79202	1399.93457	-1016.32330	395.45642	1084.45288	-796.35919	347.43851	959.51190	-1013.76843	-50.91347	929.53015	-1020.49255	235.77187	907.04236	-1241.75562	83.59586	912.36353	-895.66486	-1.16841	592.88306	-926.42889	-42.51649	470.11743	-921.23785	35.11281	235.30511	-965.82825	-35.82130	69.89116	-1032.35291	26.06289	39.07038	-821.22162	-14.73337	38.59910	-983.96252	222.87244	579.52509	-1106.90112	270.67749	427.61682	-1194.16077	194.13556	314.35330	-1460.36047	220.17902	229.25314	-1477.61975	148.86020	273.79785	-1453.64209	228.77104	88.32719	-775.68024	6.33790	37.40138	-815.00171	23.50203	42.57644	-914.38635	58.99311	51.20584	-987.58313	59.19978	38.26410	-1001.77100	-16.23687	39.52502	-927.59344	-42.32235	34.26165	-860.77228	-57.64127	34.65884	-1434.86084	214.47112	49.74443	-1438.28369	195.16614	74.42014	-1434.72595	143.55313	156.62877	-1458.10010	126.75836	233.17232	-1486.78088	192.30244	253.28760	-1486.52026	232.41786	182.93428	-1476.37903	250.05177	123.65587	
371	3.083	-1044.31677	56.99103	1703.79736	-928.51538	58.66169	1626.04956	-1148.96167	68.24255	1630.35144	-1092.22632	-127.47427	1386.78674	-1213.60022	155.60245	1252.55164	-1176.85034	-211.62280	1070.53625	-1124.92993	-208.18864	811.51038	-1053.42163	278.87051	1402.90991	-1009.26422	393.97867	1085.99426	-792.37817	348.04834	955.24091	-1002.51825	-52.17781	931.80133	-1008.51715	234.57114	909.76074	-1230.36121	82.39333	915.12054	-889.69672	-2.00489	592.08081	-922.77209	-44.17304	469.47113	-918.46271	33.72061	235.07368	-965.91443	-35.99714	69.70277	-1032.41589	26.07899	39.12385	-821.13477	-15.05955	38.46463	-966.92535	219.26477	583.76611	-1082.57483	269.43417	430.01080	-1170.95898	191.22081	317.62360	-1437.32703	217.43352	234.27640	-1455.21448	145.38788	277.19968	-1428.15198	229.28609	94.04214	-775.90234	5.81950	37.50516	-815.18945	23.09879	42.64515	-914.39404	58.60142	51.41470	-987.61932	59.05278	38.48874	-1001.82751	-16.25074	39.50870	-927.51410	-42.61960	34.16918	-860.99567	-58.06505	34.44853	-1409.61072	214.56667	53.76311	-1428.08679	188.83708	72.75805	-1411.53186	141.89540	161.13197	-1435.39954	123.68131	236.56476	-1463.85986	189.25446	257.81674	-1462.81848	230.47430	188.37636	-1450.95593	249.28081	130.35585																																																	-1267.36194	98.74630	136.75847	
372	3.092	-1031.74011	55.71517	1706.58398	-916.35992	57.79031	1628.53308	-1136.87549	66.95941	1633.15027	-1079.28601	-128.31693	1389.39966	-1201.59253	153.86385	1255.44812	-1161.20276	-213.70816	1072.80237	-1102.85291	-210.82863	814.41736	-1042.07434	278.21793	1405.68616	-1003.09973	392.70856	1087.66968	-788.10254	348.40527	950.99945	-990.87885	-53.46120	933.86890	-997.08716	234.03903	912.90125	-1218.71069	81.45665	918.23022	-883.38416	-3.33665	591.37000	-919.65521	-45.71192	468.86584	-916.83380	32.46034	234.40587	-966.17529	-36.21072	69.50110	-1032.47083	26.16119	39.23797	-821.03613	-15.32652	38.35359	-947.26941	216.33437	588.73151	-1059.15149	269.00656	433.21658	-1146.24036	188.79045	321.36557	-1413.22095	215.02298	237.65402	-1433.78149	142.51234	279.74149	-1401.71594	228.03622	97.12206	-775.78558	5.40569	37.44992	-815.17822	22.82339	42.66786	-914.48523	58.16380	51.55778	-987.56207	58.95408	38.64423	-1001.93469	-16.30426	39.47356	-927.70996	-42.57282	33.61712	-861.31665	-58.72660	34.31483	-1382.97083	214.56601	56.78658	-1401.02539	188.24803	76.40677	-1386.59875	139.15031	164.96758	-1413.25146	120.96935	239.51767	-1441.10095	186.91212	260.59741	-1435.87415	228.41971	191.45601	-1424.60278	247.84933	133.05183																																																	-1241.46741	96.34933	139.60431	
373	3.100	-1019.86157	54.06363	1709.48083	-904.55859	56.09880	1631.18396	-1124.64392	65.88521	1635.79163	-1065.91272	-129.43967	1392.59961	-1189.63306	152.10710	1258.26172	-1144.74426	-215.54506	1074.73279	-1081.29712	-212.55461	818.15527	-1030.69336	277.68710	1408.25647	-996.73444	391.46005	1089.34888	-785.59125	349.23654	946.58484	-980.19141	-54.95647	935.56110	-985.64911	233.12976	915.89746	-1207.23535	80.28458	921.29150	-877.83899	-4.77984	589.71918	-916.95966	-47.27496	468.69861	-914.67084	31.90631	234.35776	-966.49420	-36.44745	69.35777	-1032.48132	26.27262	39.35897	-821.21783	-15.44269	38.33418	-928.16516	213.54431	593.87799	-1034.69421	267.71909	437.02576	-1121.61230	186.88731	324.62643	-1388.49976	212.74203	239.92363	-1411.55139	140.46959	281.01526	-1370.74841	226.60231	100.49065	-775.94293	5.12491	37.49020	-815.21057	22.60845	42.70925	-914.58545	57.90471	51.78441	-987.47119	58.89292	38.81604	-1002.05505	-16.35018	39.43685	-927.88788	-42.89109	33.42924	-861.59119	-59.18291	34.21746	-1353.66541	213.05965	58.75506	-1357.91821	192.32072	85.35342	-1360.28894	137.27460	167.98828	-1389.95288	118.86926	241.03714	-1415.49695	183.84726	261.97281	-1409.10486	226.81892	193.16606	-1394.20276	246.21497	135.34285																																																	-1327.98083	249.47231	24.58674	
